# xmcd CD database file
#
# Track frame offsets:
#	150
#	14887
#	26477
#	37192
#	50705
#	68437
#	83052
#	95027
#	106925
#	118037
#	131785
#	147022
#
# Disc length: 2095 seconds
#
# Revision: 2
# Processed by: cddbd v1.5.1PL0 Copyright (c) Steve Scherf et al.
# Submitted via: CDex 1.51
#
DISCID=a9082d0c
DTITLE=Heather Myles - Highways and Honky Tonks
DYEAR=1998
DGENRE=Country
TTITLE0=You're Gonna Love Me One Day
TTITLE1=Kiss An Angel Good Morning
TTITLE2=You've Taken Me Places I Wish I'd Never Been
TTITLE3=Broken Heart For Sale
TTITLE4=True Love
TTITLE5=No One Is Gonna Love You Better
TTITLE6=Playin' Every Honky Tonk In Town
TTITLE7=Mr. Lonesome
TTITLE8=Rock At The End Of My Rainbow
TTITLE9=Who Did You Call Darlin'
TTITLE10=Love Me A Little Bit Longer
TTITLE11=I'll Be There If You Ever Want Me
EXTD=1998 Rounder Records YEAR: 1998
EXTT0=
EXTT1=
EXTT2=
EXTT3=
EXTT4=
EXTT5=
EXTT6=
EXTT7=
EXTT8=
EXTT9=
EXTT10=
EXTT11=
PLAYORDER=
